<svg width="224" height="227" viewBox="0 0 224 227" fill="none" xmlns="http://www.w3.org/2000/svg">
<g opacity="0.3">
<path d="M171.836 21.063C172.94 30.1833 175.056 43.4735 176.307 43.8872C178.135 44.4984 190.335 44.4984 190.335 44.4984C190.335 44.4984 191.858 103.653 193.381 104.264C194.904 104.876 199.493 105.176 200.701 103.653C201.392 102.788 199.526 83.8143 197.786 67.5858" stroke="#3E1F37" stroke-linecap="round" stroke-linejoin="round"/>
<path d="M203.771 17.4331C202.295 11.8387 201.016 7.29736 201.016 7.29736C201.016 7.29736 171.427 10.3484 171.121 12.7789C171.126 14.534 171.249 16.2867 171.488 18.0254" stroke="#3E1F37" stroke-linecap="round" stroke-linejoin="round"/>
<path d="M197.391 63.9327C196.225 53.2046 195.21 44.498 195.21 44.498C195.21 44.498 207.127 39.6182 208.021 37.4839C208.491 36.3509 206.493 27.8841 204.499 20.207" stroke="#3E1F37" stroke-linecap="round" stroke-linejoin="round"/>
<path d="M184.693 33.6856L185.074 35.7494C185.133 36.0658 185.128 36.3907 185.061 36.7053C184.994 37.02 184.865 37.3184 184.683 37.5834C184.5 37.8484 184.268 38.0748 183.998 38.2498C183.727 38.4247 183.426 38.5448 183.109 38.603C182.471 38.7197 181.812 38.5783 181.278 38.2098C180.744 37.8414 180.378 37.2761 180.26 36.638L176.814 17.9743C176.7 17.3368 176.843 16.6802 177.211 16.1474C177.579 15.6147 178.143 15.249 178.779 15.1301C179.096 15.0716 179.421 15.0761 179.735 15.1433C180.05 15.2104 180.348 15.3389 180.613 15.5214C180.878 15.7039 181.105 15.9368 181.28 16.2068C181.455 16.4769 181.575 16.7787 181.633 17.0952L183.918 29.4781" stroke="#3E1F37" stroke-linecap="round" stroke-linejoin="round"/>
<path d="M191.886 36.9718C191.247 37.0885 190.588 36.9472 190.053 36.5788C189.519 36.2105 189.151 35.6452 189.033 35.0067L185.591 16.343C185.533 16.0266 185.537 15.7018 185.605 15.3871C185.672 15.0724 185.8 14.7741 185.983 14.5091C186.165 14.2441 186.398 14.0176 186.668 13.8427C186.938 13.6677 187.24 13.5477 187.556 13.4894C187.873 13.431 188.197 13.4355 188.512 13.5027C188.826 13.5699 189.124 13.6985 189.389 13.881C189.653 14.0635 189.879 14.2965 190.054 14.5665C190.228 14.8365 190.348 15.1382 190.405 15.4545L193.851 34.1182C193.91 34.4346 193.905 34.7594 193.838 35.0741C193.771 35.3887 193.643 35.6871 193.46 35.9521C193.278 36.2171 193.045 36.4435 192.775 36.6185C192.505 36.7935 192.203 36.9135 191.886 36.9718Z" stroke="#3E1F37" stroke-linecap="round" stroke-linejoin="round"/>
<path d="M196.263 25.0024L194.382 14.7162C194.319 14.4003 194.32 14.0752 194.383 13.7594C194.446 13.4436 194.571 13.1434 194.751 12.8761C194.93 12.6087 195.161 12.3795 195.429 12.2015C195.697 12.0235 195.998 11.9004 196.315 11.8391C196.631 11.7806 196.956 11.7851 197.27 11.8523C197.585 11.9194 197.883 12.0479 198.148 12.2304C198.413 12.4129 198.64 12.6458 198.815 12.9158C198.99 13.1859 199.11 13.4877 199.168 13.8042L202.614 32.4678C202.675 32.7849 202.674 33.1109 202.609 33.4273C202.544 33.7437 202.417 34.0441 202.236 34.3114C202.055 34.5787 201.822 34.8076 201.553 34.9849C201.283 35.1623 200.98 35.2846 200.663 35.3449C200.347 35.4034 200.022 35.3989 199.707 35.3317C199.393 35.2646 199.094 35.1361 198.829 34.9536C198.564 34.7711 198.338 34.5382 198.163 34.2682C197.988 33.9982 197.868 33.6963 197.81 33.3799L196.785 27.8231" stroke="#3E1F37" stroke-linecap="round" stroke-linejoin="round"/>
</g>
<g opacity="0.3">
<path d="M183.542 124.197C183.542 124.197 183.942 122.994 182.536 119.966C181.13 116.939 176.711 114.743 176.711 114.743C176.711 114.743 176.307 113.136 178.314 112.933C180.322 112.731 182.738 115.345 183.956 117.555C185.173 119.764 186.165 123.986 186.165 123.986C186.165 123.986 187.975 121.772 190.584 121.574C193.194 121.377 197.016 122.576 197.016 122.576L191.374 124.987L189.964 125.392" stroke="#3E1F37" stroke-linecap="round" stroke-linejoin="round"/>
<path d="M189.766 126.792C189.766 126.792 191.98 126.388 193.183 127.996C194.387 129.604 196.596 133.219 196.596 133.219C196.596 133.219 191.176 131.809 188.962 131.009C186.747 130.21 185.346 127.394 185.346 127.394L182.333 131.813L176.908 134.427L179.32 127.996L180.528 125.387C180.528 125.387 178.92 126.388 177.707 126.388C176.494 126.388 172.893 127.018 172.893 127.018C172.893 127.018 177.51 122.594 179.32 122.195C180.406 121.955 181.541 122.097 182.535 122.594" stroke="#3E1F37" stroke-linecap="round" stroke-linejoin="round"/>
<path d="M173.895 123.178C173.895 123.178 169.664 123.982 167.666 133.219C165.668 142.457 175.705 151.704 183.542 152.71C191.379 153.717 199.211 151.907 203.428 141.056C207.645 130.206 202.017 122.773 199.009 120.371" stroke="#3E1F37" stroke-linecap="round" stroke-linejoin="round"/>
<path d="M196.4 119.157C196.4 119.157 193.579 116.543 186.353 117.747" stroke="#3E1F37" stroke-linecap="round" stroke-linejoin="round"/>
</g>
<g opacity="0.3">
<path d="M172.654 161.674C172.654 161.674 172.94 160.814 171.934 158.661C170.928 156.508 167.774 154.928 167.774 154.928C167.774 154.928 167.487 153.781 168.921 153.635C170.355 153.49 172.08 155.361 172.94 156.926C173.801 158.492 174.52 161.519 174.52 161.519C174.52 161.519 175.808 159.94 177.674 159.799C179.541 159.658 182.267 160.513 182.267 160.513L178.248 162.239L177.247 162.525" stroke="#3E1F37" stroke-linecap="round" stroke-linejoin="round"/>
<path d="M177.1 163.537C177.1 163.537 178.68 163.25 179.54 164.402C180.401 165.554 181.98 168.13 181.98 168.13C181.98 168.13 178.106 167.129 176.527 166.55C174.947 165.972 173.946 163.97 173.946 163.97L171.793 167.129L167.919 169.009L169.64 164.421L170.5 162.54C169.891 162.923 169.206 163.167 168.492 163.255C167.632 163.255 165.047 163.687 165.047 163.687C165.047 163.687 168.337 160.528 169.64 160.242C170.415 160.072 171.224 160.173 171.934 160.528" stroke="#3E1F37" stroke-linecap="round" stroke-linejoin="round"/>
<path d="M165.757 160.956C165.757 160.956 162.743 161.529 161.31 168.13C159.876 174.73 167.045 181.331 172.644 182.05C178.243 182.769 183.838 181.476 186.851 173.729C189.865 165.981 185.845 160.669 183.692 158.948" stroke="#3E1F37" stroke-linecap="round" stroke-linejoin="round"/>
<path d="M181.835 158.088C181.835 158.088 179.828 156.208 174.661 157.082" stroke="#3E1F37" stroke-linecap="round" stroke-linejoin="round"/>
</g>
<g opacity="0.3">
<path d="M211.444 164.515C211.444 164.515 212.243 164.637 213.987 163.433C215.731 162.23 216.652 159.202 216.652 159.202C216.652 159.202 217.616 158.779 217.959 160.02C218.303 161.261 216.916 163.057 215.656 164.049C214.459 164.865 213.183 165.56 211.848 166.122C212.795 166.693 213.502 167.589 213.836 168.642C214.241 170.264 213.888 172.789 213.888 172.789L211.773 169.498L211.373 168.656" stroke="#3E1F37" stroke-linecap="round" stroke-linejoin="round"/>
<path d="M210.466 168.704C210.466 168.704 210.936 170.053 210.075 170.979C209.215 171.905 207.156 173.682 207.156 173.682C207.156 173.682 207.461 170.123 207.729 168.652C207.997 167.18 209.61 165.991 209.61 165.991L206.512 164.581L204.307 161.44L208.604 162.268L210.376 162.738C209.943 162.261 209.622 161.694 209.436 161.078C209.304 160.321 208.543 158.112 208.543 158.112C208.543 158.112 211.81 160.542 212.257 161.638C212.522 162.295 212.554 163.024 212.346 163.702" stroke="#3E1F37" stroke-linecap="round" stroke-linejoin="round"/>
<path d="M211.048 158.347C211.048 158.347 210.108 155.78 204.072 155.502C198.035 155.225 193.311 162.521 193.518 167.551C193.724 172.582 195.689 177.316 202.957 178.811C210.226 180.306 214.297 175.99 215.491 173.827" stroke="#3E1F37" stroke-linecap="round" stroke-linejoin="round"/>
<path d="M215.97 172.055C215.97 172.055 217.31 170.01 215.782 165.596" stroke="#3E1F37" stroke-linecap="round" stroke-linejoin="round"/>
</g>
<g opacity="0.3">
<path d="M187.919 189.67C187.919 189.67 175.743 183.779 174.563 188.095C173.383 192.41 179.264 193.99 180.063 198.701C180.862 203.411 184.764 206.556 190.274 205.376C195.784 204.196 198.915 196.735 196.165 192.415" stroke="#3E1F37" stroke-linecap="round" stroke-linejoin="round"/>
<path d="M181.633 205.771C181.633 205.771 179.668 204.986 179.283 210.091C178.897 215.197 187.529 220.302 194.204 217.942C200.88 215.582 208.736 208.911 203.24 196.735" stroke="#3E1F37" stroke-linecap="round" stroke-linejoin="round"/>
<path d="M179.194 207.501C179.194 207.501 174.657 206.998 173.317 211.699C171.978 216.4 176.171 221.101 183.054 221.943C189.936 222.785 196.156 218.079 196.156 218.079" stroke="#3E1F37" stroke-linecap="round" stroke-linejoin="round"/>
<path d="M176.674 206.495C176.674 206.495 174.827 204.648 172.81 204.309C170.793 203.971 167.272 200.111 167.272 198.263C167.272 196.416 163.746 196.251 162.402 200.111C161.057 203.971 161.729 211.699 164.583 215.728C167.436 219.757 172.142 222.277 176.336 221.943" stroke="#3E1F37" stroke-linecap="round" stroke-linejoin="round"/>
<path d="M183.561 205.485C183.561 205.485 190.11 208.846 194.98 205.823C199.85 202.801 199.343 197.93 198.337 194.404" stroke="#3E1F37" stroke-linecap="round" stroke-linejoin="round"/>
<path d="M174.323 207.835C174.323 207.835 170.628 209.852 170.628 215.056C170.628 220.26 178.188 221.943 178.188 221.943" stroke="#3E1F37" stroke-linecap="round" stroke-linejoin="round"/>
<path d="M189.94 189.698C189.94 189.698 193.118 190.004 194.641 191.212" stroke="#3E1F37" stroke-linecap="round" stroke-linejoin="round"/>
</g>
<g opacity="0.3">
<path d="M144.833 220.354C144.833 220.354 157.657 216.066 155.481 212.15C153.304 208.234 147.997 211.21 144.142 208.389C140.287 205.569 135.28 206.062 132.168 210.74C129.055 215.418 132.027 222.963 137.01 224.129" stroke="#3E1F37" stroke-linecap="round" stroke-linejoin="round"/>
<path d="M138.077 204.445C138.077 204.445 140.028 203.636 136.742 199.706C133.456 195.776 123.71 198.164 120.579 204.516C117.448 210.867 116.494 221.13 128.933 226" stroke="#3E1F37" stroke-linecap="round" stroke-linejoin="round"/>
<path d="M138.613 201.503C138.613 201.503 142.21 198.682 139.887 194.394C137.565 190.107 131.275 189.66 125.76 193.868C120.246 198.075 119.089 205.785 119.089 205.785" stroke="#3E1F37" stroke-linecap="round" stroke-linejoin="round"/>
<path d="M141.119 200.463C141.119 200.463 143.733 200.496 145.406 199.326C147.08 198.155 152.308 198.456 153.596 199.796C154.884 201.135 157.526 198.771 155.791 195.094C154.056 191.418 148.175 186.336 143.319 185.443C138.463 184.55 133.334 186.04 130.565 189.204" stroke="#3E1F37" stroke-linecap="round" stroke-linejoin="round"/>
<path d="M136.897 205.997C136.897 205.997 129.845 208.169 128.492 213.735C127.138 219.301 130.884 222.432 134.067 224.252" stroke="#3E1F37" stroke-linecap="round" stroke-linejoin="round"/>
<path d="M141.862 197.859C141.862 197.859 143.099 193.835 139.46 190.112C135.821 186.388 129.244 190.464 129.244 190.464" stroke="#3E1F37" stroke-linecap="round" stroke-linejoin="round"/>
<path d="M143.362 221.746C143.362 221.746 140.875 223.748 138.943 223.95" stroke="#3E1F37" stroke-linecap="round" stroke-linejoin="round"/>
</g>
<g opacity="0.3">
<path d="M27.618 139.006C36.5566 134.839 46.6806 133.966 56.2003 136.542C65.7201 139.118 74.0225 144.977 79.6399 153.083C85.2573 161.189 87.828 171.02 86.8974 180.838C85.9668 190.656 81.5949 199.829 74.5546 206.736" stroke="#3E1F37" stroke-linecap="round" stroke-linejoin="round"/>
<path d="M72.2466 208.842C67.7828 212.608 62.5793 215.398 56.9715 217.03C51.3636 218.663 45.4759 219.102 39.688 218.32C33.9 217.537 28.3402 215.551 23.367 212.488C18.3937 209.425 14.1175 205.355 10.8139 200.538C7.51038 195.721 5.25279 190.266 4.18673 184.524C3.12068 178.781 3.2698 172.879 4.6245 167.198C5.9792 161.516 8.50941 156.182 12.052 151.538C15.5946 146.895 20.071 143.045 25.1925 140.237" stroke="#3E1F37" stroke-linecap="round" stroke-linejoin="round"/>
<path d="M72.7823 181.509C71.9916 186.211 70.0078 190.631 67.0207 194.347C64.0335 198.063 60.1429 200.951 55.721 202.734C51.299 204.517 46.4935 205.135 41.7641 204.531C37.0348 203.926 32.5397 202.118 28.7087 199.279" stroke="#3E1F37" stroke-linecap="round" stroke-linejoin="round"/>
<path d="M26.0427 197.033C22.7581 193.887 20.2934 189.985 18.8638 185.667C17.4343 181.35 17.0834 176.748 17.8417 172.263C18.6001 167.779 20.4446 163.548 23.2143 159.941C25.984 156.333 29.5947 153.459 33.7311 151.568C37.8675 149.677 42.4039 148.827 46.9442 149.093C51.4846 149.359 55.8908 150.732 59.7783 153.093C63.6657 155.454 66.9162 158.73 69.246 162.636C71.5758 166.542 72.914 170.959 73.1438 175.501" stroke="#3E1F37" stroke-linecap="round" stroke-linejoin="round"/>
<path d="M31.7744 165.408H42.1734C42.6173 165.408 43.043 165.585 43.3568 165.898C43.6707 166.212 43.847 166.638 43.847 167.082V172.432" stroke="#3E1F37" stroke-linecap="round" stroke-linejoin="round"/>
<path d="M43.8604 175.629V187.076C43.8604 187.295 43.8171 187.513 43.7329 187.716C43.6487 187.918 43.5254 188.103 43.3699 188.258C43.2144 188.413 43.0299 188.536 42.8269 188.619C42.6238 188.703 42.4063 188.745 42.1868 188.745H24.7454C24.5258 188.745 24.3083 188.703 24.1053 188.619C23.9023 188.536 23.7177 188.413 23.5623 188.258C23.4068 188.103 23.2834 187.918 23.1993 187.716C23.1151 187.513 23.0718 187.295 23.0718 187.076V167.082C23.0718 166.638 23.2481 166.212 23.562 165.898C23.8758 165.585 24.3015 165.408 24.7454 165.408H29.0705" stroke="#3E1F37" stroke-linecap="round" stroke-linejoin="round"/>
<path d="M27.3124 169.253C27.3134 169.353 27.2843 169.452 27.2288 169.536C27.1734 169.621 27.0941 169.686 27.0012 169.725C26.9082 169.764 26.8057 169.775 26.7068 169.755C26.6079 169.736 26.517 169.688 26.4457 169.616C26.3744 169.545 26.326 169.454 26.3065 169.355C26.2871 169.256 26.2975 169.154 26.3365 169.061C26.3756 168.968 26.4414 168.889 26.5256 168.833C26.6098 168.778 26.7086 168.749 26.8094 168.75C26.9428 168.75 27.0708 168.803 27.1651 168.897C27.2594 168.991 27.3124 169.119 27.3124 169.253Z" stroke="#3E1F37" stroke-linecap="round" stroke-linejoin="round"/>
<path d="M31.4494 169.756C31.7273 169.756 31.9525 169.53 31.9525 169.253C31.9525 168.975 31.7273 168.75 31.4494 168.75C31.1716 168.75 30.9464 168.975 30.9464 169.253C30.9464 169.53 31.1716 169.756 31.4494 169.756Z" stroke="#3E1F37" stroke-linecap="round" stroke-linejoin="round"/>
<path d="M36.0945 169.756C36.3723 169.756 36.5975 169.53 36.5975 169.253C36.5975 168.975 36.3723 168.75 36.0945 168.75C35.8166 168.75 35.5914 168.975 35.5914 169.253C35.5914 169.53 35.8166 169.756 36.0945 169.756Z" stroke="#3E1F37" stroke-linecap="round" stroke-linejoin="round"/>
<path d="M40.7342 169.756C41.012 169.756 41.2373 169.53 41.2373 169.253C41.2373 168.975 41.012 168.75 40.7342 168.75C40.4564 168.75 40.2312 168.975 40.2312 169.253C40.2312 169.53 40.4564 169.756 40.7342 169.756Z" stroke="#3E1F37" stroke-linecap="round" stroke-linejoin="round"/>
<path d="M27.3124 173.231C27.3134 173.331 27.2843 173.43 27.2288 173.514C27.1734 173.599 27.0941 173.664 27.0012 173.703C26.9082 173.742 26.8057 173.753 26.7068 173.733C26.6079 173.714 26.517 173.666 26.4457 173.594C26.3744 173.523 26.326 173.432 26.3065 173.333C26.2871 173.234 26.2975 173.132 26.3365 173.039C26.3756 172.946 26.4414 172.867 26.5256 172.811C26.6098 172.756 26.7086 172.727 26.8094 172.728C26.9428 172.728 27.0708 172.781 27.1651 172.875C27.2594 172.969 27.3124 173.097 27.3124 173.231Z" stroke="#3E1F37" stroke-linecap="round" stroke-linejoin="round"/>
<path d="M31.9574 173.231C31.9584 173.331 31.9294 173.43 31.8742 173.514C31.819 173.598 31.74 173.664 31.6473 173.703C31.5546 173.742 31.4524 173.753 31.3536 173.734C31.2548 173.715 31.1639 173.667 31.0924 173.596C31.0209 173.525 30.9721 173.435 30.9521 173.336C30.9321 173.237 30.9419 173.135 30.9802 173.042C31.0185 172.949 31.0836 172.869 31.1672 172.813C31.2508 172.757 31.3491 172.728 31.4497 172.728C31.5162 172.727 31.5821 172.739 31.6437 172.764C31.7052 172.789 31.7612 172.826 31.8085 172.873C31.8557 172.92 31.8931 172.976 31.9187 173.037C31.9443 173.098 31.9575 173.164 31.9574 173.231Z" stroke="#3E1F37" stroke-linecap="round" stroke-linejoin="round"/>
<path d="M36.5972 173.231C36.5981 173.331 36.569 173.43 36.5136 173.514C36.4582 173.599 36.3789 173.664 36.286 173.703C36.193 173.742 36.0905 173.753 35.9916 173.733C35.8927 173.714 35.8018 173.666 35.7305 173.594C35.6592 173.523 35.6108 173.432 35.5913 173.333C35.5719 173.234 35.5823 173.132 35.6213 173.039C35.6603 172.946 35.7261 172.867 35.8104 172.811C35.8946 172.756 35.9934 172.727 36.0942 172.728C36.2276 172.728 36.3555 172.781 36.4499 172.875C36.5442 172.969 36.5972 173.097 36.5972 173.231Z" stroke="#3E1F37" stroke-linecap="round" stroke-linejoin="round"/>
<path d="M41.2422 173.231C41.2432 173.331 41.2142 173.43 41.159 173.514C41.1037 173.598 41.0248 173.664 40.9321 173.703C40.8394 173.742 40.7372 173.753 40.6384 173.734C40.5396 173.715 40.4487 173.667 40.3772 173.596C40.3057 173.525 40.2569 173.435 40.2369 173.336C40.2169 173.237 40.2267 173.135 40.265 173.042C40.3033 172.949 40.3684 172.869 40.452 172.813C40.5355 172.757 40.6339 172.728 40.7345 172.728C40.801 172.727 40.8669 172.739 40.9285 172.764C40.99 172.789 41.046 172.826 41.0932 172.873C41.1405 172.92 41.1779 172.976 41.2035 173.037C41.2291 173.098 41.2422 173.164 41.2422 173.231Z" stroke="#3E1F37" stroke-linecap="round" stroke-linejoin="round"/>
<path d="M27.3125 177.207C27.3124 177.308 27.2825 177.406 27.2265 177.49C27.1705 177.573 27.091 177.638 26.9979 177.676C26.9049 177.715 26.8025 177.725 26.7039 177.705C26.6053 177.685 26.5149 177.636 26.444 177.564C26.3732 177.493 26.3252 177.402 26.3062 177.303C26.2871 177.204 26.2979 177.102 26.337 177.009C26.3762 176.917 26.442 176.838 26.5261 176.783C26.6102 176.727 26.7088 176.698 26.8094 176.699C26.8759 176.699 26.9417 176.712 27.003 176.738C27.0644 176.764 27.12 176.801 27.1668 176.848C27.2136 176.895 27.2505 176.951 27.2755 177.013C27.3005 177.075 27.3131 177.141 27.3125 177.207Z" stroke="#3E1F37" stroke-linecap="round" stroke-linejoin="round"/>
<path d="M31.9575 177.207C31.9575 177.307 31.9277 177.406 31.8719 177.489C31.8161 177.573 31.7368 177.638 31.644 177.676C31.5513 177.714 31.4492 177.725 31.3507 177.705C31.2522 177.685 31.1617 177.637 31.0907 177.566C31.0197 177.495 30.9714 177.405 30.9518 177.306C30.9322 177.208 30.9422 177.105 30.9807 177.013C31.0191 176.92 31.0842 176.841 31.1677 176.785C31.2512 176.729 31.3493 176.699 31.4497 176.699C31.5166 176.699 31.5829 176.711 31.6448 176.737C31.7067 176.762 31.7629 176.799 31.8102 176.847C31.8574 176.894 31.8948 176.95 31.9201 177.012C31.9454 177.074 31.9581 177.14 31.9575 177.207Z" stroke="#3E1F37" stroke-linecap="round" stroke-linejoin="round"/>
<path d="M36.5972 177.207C36.5972 177.308 36.5673 177.406 36.5113 177.49C36.4553 177.573 36.3758 177.638 36.2827 177.676C36.1897 177.715 36.0873 177.725 35.9887 177.705C35.8901 177.685 35.7996 177.636 35.7288 177.564C35.658 177.493 35.61 177.402 35.591 177.303C35.5719 177.204 35.5826 177.102 35.6218 177.009C35.661 176.917 35.7268 176.838 35.8109 176.783C35.895 176.727 35.9936 176.698 36.0942 176.699C36.1607 176.699 36.2265 176.712 36.2878 176.738C36.3491 176.764 36.4048 176.801 36.4516 176.848C36.4984 176.895 36.5353 176.951 36.5603 177.013C36.5853 177.075 36.5979 177.141 36.5972 177.207Z" stroke="#3E1F37" stroke-linecap="round" stroke-linejoin="round"/>
<path d="M41.2423 177.207C41.2423 177.307 41.2125 177.406 41.1567 177.489C41.1009 177.573 41.0216 177.638 40.9288 177.676C40.8361 177.714 40.734 177.725 40.6355 177.705C40.537 177.685 40.4465 177.637 40.3755 177.566C40.3045 177.495 40.2562 177.405 40.2366 177.306C40.217 177.208 40.227 177.105 40.2655 177.013C40.3039 176.92 40.369 176.841 40.4525 176.785C40.5359 176.729 40.6341 176.699 40.7345 176.699C40.8014 176.699 40.8677 176.711 40.9296 176.737C40.9915 176.762 41.0477 176.799 41.0949 176.847C41.1422 176.894 41.1796 176.95 41.2049 177.012C41.2302 177.074 41.2429 177.14 41.2423 177.207Z" stroke="#3E1F37" stroke-linecap="round" stroke-linejoin="round"/>
<path d="M27.3125 181.185C27.3124 181.286 27.2825 181.384 27.2265 181.468C27.1705 181.551 27.091 181.616 26.9979 181.655C26.9049 181.693 26.8025 181.703 26.7039 181.683C26.6053 181.663 26.5149 181.614 26.444 181.542C26.3732 181.471 26.3252 181.38 26.3062 181.281C26.2871 181.182 26.2979 181.08 26.337 180.987C26.3762 180.895 26.442 180.816 26.5261 180.761C26.6102 180.705 26.7088 180.676 26.8094 180.677C26.8759 180.677 26.9417 180.69 27.003 180.716C27.0644 180.742 27.12 180.779 27.1668 180.826C27.2136 180.873 27.2505 180.929 27.2755 180.991C27.3005 181.053 27.3131 181.119 27.3125 181.185Z" stroke="#3E1F37" stroke-linecap="round" stroke-linejoin="round"/>
<path d="M31.4494 181.688C31.7273 181.688 31.9525 181.462 31.9525 181.185C31.9525 180.907 31.7273 180.682 31.4494 180.682C31.1716 180.682 30.9464 180.907 30.9464 181.185C30.9464 181.462 31.1716 181.688 31.4494 181.688Z" stroke="#3E1F37" stroke-linecap="round" stroke-linejoin="round"/>
<path d="M36.0945 181.688C36.3723 181.688 36.5975 181.462 36.5975 181.185C36.5975 180.907 36.3723 180.682 36.0945 180.682C35.8166 180.682 35.5914 180.907 35.5914 181.185C35.5914 181.462 35.8166 181.688 36.0945 181.688Z" stroke="#3E1F37" stroke-linecap="round" stroke-linejoin="round"/>
<path d="M40.7342 181.688C41.012 181.688 41.2373 181.462 41.2373 181.185C41.2373 180.907 41.012 180.682 40.7342 180.682C40.4564 180.682 40.2312 180.907 40.2312 181.185C40.2312 181.462 40.4564 181.688 40.7342 181.688Z" stroke="#3E1F37" stroke-linecap="round" stroke-linejoin="round"/>
<path d="M27.3124 185.157C27.3134 185.258 27.2843 185.357 27.2288 185.441C27.1734 185.525 27.0941 185.591 27.0012 185.63C26.9082 185.669 26.8057 185.68 26.7068 185.66C26.6079 185.641 26.517 185.592 26.4457 185.521C26.3744 185.45 26.326 185.359 26.3065 185.26C26.2871 185.161 26.2975 185.059 26.3365 184.966C26.3756 184.873 26.4414 184.793 26.5256 184.738C26.6098 184.682 26.7086 184.653 26.8094 184.654C26.9428 184.654 27.0708 184.707 27.1651 184.802C27.2594 184.896 27.3124 185.024 27.3124 185.157Z" stroke="#3E1F37" stroke-linecap="round" stroke-linejoin="round"/>
<path d="M31.4494 185.66C31.7273 185.66 31.9525 185.435 31.9525 185.157C31.9525 184.88 31.7273 184.654 31.4494 184.654C31.1716 184.654 30.9464 184.88 30.9464 185.157C30.9464 185.435 31.1716 185.66 31.4494 185.66Z" stroke="#3E1F37" stroke-linecap="round" stroke-linejoin="round"/>
<path d="M36.0945 185.66C36.3723 185.66 36.5975 185.435 36.5975 185.157C36.5975 184.88 36.3723 184.654 36.0945 184.654C35.8166 184.654 35.5914 184.88 35.5914 185.157C35.5914 185.435 35.8166 185.66 36.0945 185.66Z" stroke="#3E1F37" stroke-linecap="round" stroke-linejoin="round"/>
<path d="M40.7342 185.66C41.012 185.66 41.2373 185.435 41.2373 185.157C41.2373 184.88 41.012 184.654 40.7342 184.654C40.4564 184.654 40.2312 184.88 40.2312 185.157C40.2312 185.435 40.4564 185.66 40.7342 185.66Z" stroke="#3E1F37" stroke-linecap="round" stroke-linejoin="round"/>
<path d="M51.5891 190.347L45.9054 186.633C45.537 186.387 45.2809 186.005 45.1928 185.571C45.1047 185.137 45.1919 184.685 45.4353 184.315L56.3702 167.579C56.6163 167.211 56.998 166.955 57.4322 166.867C57.8664 166.778 58.3177 166.866 58.6879 167.109L73.2898 176.648C73.6591 176.893 73.9161 177.275 74.0043 177.709C74.0924 178.144 74.0045 178.596 73.7599 178.965L62.8014 195.687C62.5562 196.057 62.1744 196.314 61.7398 196.402C61.3053 196.49 60.8536 196.402 60.4838 196.158L54.1654 192.03" stroke="#3E1F37" stroke-linecap="round" stroke-linejoin="round"/>
<path d="M58.7168 171.722C58.6619 171.806 58.5833 171.872 58.4908 171.912C58.3984 171.951 58.2962 171.962 58.1974 171.944C58.0985 171.925 58.0074 171.878 57.9356 171.807C57.8638 171.737 57.8146 171.647 57.7941 171.548C57.7736 171.45 57.7828 171.347 57.8206 171.254C57.8583 171.161 57.9229 171.081 58.0062 171.025C58.0894 170.968 58.1875 170.938 58.2881 170.937C58.3886 170.936 58.4871 170.966 58.571 171.021C58.6819 171.096 58.7592 171.211 58.7864 171.342C58.8136 171.473 58.7886 171.609 58.7168 171.722Z" stroke="#3E1F37" stroke-linecap="round" stroke-linejoin="round"/>
<path d="M62.5996 174.259C62.5447 174.342 62.4666 174.407 62.3751 174.445C62.2836 174.483 62.1827 174.494 62.0853 174.475C61.9878 174.456 61.8981 174.409 61.8274 174.339C61.7568 174.27 61.7083 174.181 61.688 174.084C61.6678 173.986 61.6768 173.885 61.7138 173.793C61.7509 173.701 61.8143 173.622 61.8962 173.566C61.9781 173.51 62.0747 173.479 62.1739 173.478C62.2732 173.477 62.3706 173.505 62.4539 173.559C62.5657 173.633 62.6438 173.748 62.6711 173.879C62.6984 174.01 62.6727 174.147 62.5996 174.259Z" stroke="#3E1F37" stroke-linecap="round" stroke-linejoin="round"/>
<path d="M66.4874 176.799C66.4513 176.854 66.4046 176.902 66.35 176.94C66.2953 176.977 66.2339 177.004 66.169 177.017C66.1042 177.031 66.0373 177.032 65.9722 177.02C65.907 177.008 65.8449 176.983 65.7893 176.947C65.7337 176.911 65.6858 176.864 65.6483 176.809C65.6108 176.755 65.5844 176.693 65.5707 176.628C65.5569 176.564 65.5561 176.497 65.5682 176.432C65.5803 176.366 65.6051 176.304 65.6412 176.249C65.7142 176.136 65.8287 176.058 65.9596 176.03C66.0905 176.002 66.2271 176.028 66.3393 176.101C66.4516 176.174 66.5302 176.288 66.558 176.419C66.5857 176.55 66.5604 176.686 66.4874 176.799Z" stroke="#3E1F37" stroke-linecap="round" stroke-linejoin="round"/>
<path d="M70.3753 179.337C70.3209 179.42 70.2431 179.486 70.1515 179.525C70.06 179.564 69.9589 179.575 69.8611 179.556C69.7633 179.538 69.6732 179.491 69.6021 179.421C69.531 179.352 69.4821 179.263 69.4617 179.165C69.4413 179.068 69.4503 178.967 69.4875 178.874C69.5246 178.782 69.5883 178.703 69.6705 178.647C69.7527 178.591 69.8497 178.56 69.9493 178.559C70.0488 178.558 70.1463 178.587 70.2296 178.641C70.3411 178.714 70.4191 178.829 70.4464 178.959C70.4737 179.089 70.4482 179.225 70.3753 179.337Z" stroke="#3E1F37" stroke-linecap="round" stroke-linejoin="round"/>
<path d="M56.5398 175.049C56.4849 175.134 56.4063 175.2 56.3138 175.239C56.2214 175.279 56.1192 175.29 56.0204 175.271C55.9215 175.253 55.8304 175.205 55.7586 175.135C55.6868 175.064 55.6376 174.974 55.6171 174.876C55.5966 174.777 55.6058 174.675 55.6436 174.582C55.6813 174.489 55.7459 174.409 55.8291 174.352C55.9124 174.296 56.0105 174.265 56.1111 174.265C56.2116 174.264 56.3101 174.293 56.394 174.349C56.5049 174.423 56.5822 174.538 56.6094 174.669C56.6366 174.8 56.6116 174.937 56.5398 175.049Z" stroke="#3E1F37" stroke-linecap="round" stroke-linejoin="round"/>
<path d="M60.4514 177.588C60.3966 177.673 60.3179 177.739 60.2255 177.778C60.133 177.818 60.0308 177.829 59.932 177.81C59.8332 177.792 59.7421 177.744 59.6703 177.674C59.5985 177.603 59.5492 177.513 59.5287 177.415C59.5082 177.316 59.5174 177.214 59.5552 177.121C59.5929 177.028 59.6575 176.948 59.7408 176.891C59.824 176.835 59.9221 176.804 60.0227 176.804C60.1233 176.803 60.2218 176.832 60.3057 176.888C60.4165 176.962 60.4938 177.078 60.521 177.208C60.5482 177.339 60.5233 177.476 60.4514 177.588Z" stroke="#3E1F37" stroke-linecap="round" stroke-linejoin="round"/>
<path d="M64.3109 180.142C64.2357 180.248 64.1222 180.321 63.9944 180.345C63.8665 180.369 63.7343 180.343 63.6254 180.272C63.5165 180.201 63.4394 180.09 63.4103 179.963C63.3812 179.836 63.4024 179.703 63.4694 179.592C63.5042 179.534 63.5504 179.483 63.6052 179.444C63.66 179.404 63.7222 179.376 63.7882 179.36C63.8541 179.345 63.9224 179.344 63.989 179.355C64.0557 179.367 64.1192 179.393 64.1758 179.43C64.2325 179.467 64.2811 179.515 64.3187 179.571C64.3563 179.627 64.3822 179.69 64.3948 179.757C64.4074 179.823 64.4065 179.892 64.3921 179.958C64.3777 180.024 64.3501 180.086 64.3109 180.142Z" stroke="#3E1F37" stroke-linecap="round" stroke-linejoin="round"/>
<path d="M68.1988 182.665C68.1631 182.721 68.1166 182.769 68.0621 182.807C68.0077 182.844 67.9462 182.871 67.8815 182.884C67.8167 182.898 67.7499 182.898 67.6849 182.886C67.6199 182.873 67.5581 182.848 67.503 182.811C67.445 182.776 67.3946 182.73 67.3549 182.675C67.3152 182.621 67.2869 182.558 67.2718 182.492C67.2566 182.426 67.255 182.358 67.2669 182.292C67.2788 182.225 67.304 182.161 67.341 182.105C67.378 182.048 67.4261 182 67.4823 181.962C67.5386 181.924 67.6018 181.898 67.6683 181.886C67.7348 181.873 67.8031 181.874 67.8692 181.889C67.9353 181.903 67.9979 181.931 68.0531 181.97C68.1088 182.005 68.1568 182.052 68.1944 182.106C68.2319 182.161 68.2583 182.222 68.2718 182.287C68.2854 182.352 68.2859 182.419 68.2734 182.484C68.2608 182.549 68.2355 182.61 68.1988 182.665Z" stroke="#3E1F37" stroke-linecap="round" stroke-linejoin="round"/>
<path d="M54.3634 178.378C54.3085 178.461 54.2304 178.525 54.1389 178.564C54.0474 178.602 53.9465 178.612 53.8491 178.594C53.7516 178.575 53.6619 178.528 53.5912 178.458C53.5205 178.388 53.472 178.299 53.4518 178.202C53.4316 178.105 53.4406 178.004 53.4776 177.912C53.5147 177.82 53.5781 177.741 53.66 177.685C53.7418 177.629 53.8385 177.598 53.9377 177.597C54.0369 177.595 54.1344 177.624 54.2177 177.677C54.3295 177.751 54.4076 177.866 54.4349 177.998C54.4622 178.129 54.4365 178.266 54.3634 178.378Z" stroke="#3E1F37" stroke-linecap="round" stroke-linejoin="round"/>
<path d="M58.2513 180.917C58.1729 181.017 58.0596 181.084 57.9341 181.104C57.8085 181.125 57.6798 181.098 57.5734 181.028C57.4669 180.958 57.3906 180.851 57.3594 180.728C57.3283 180.604 57.3446 180.474 57.4051 180.362C57.4798 180.251 57.5949 180.174 57.7257 180.146C57.8566 180.119 57.9929 180.144 58.1056 180.216C58.1615 180.252 58.2096 180.299 58.2472 180.354C58.2848 180.409 58.3112 180.471 58.3247 180.536C58.3383 180.601 58.3388 180.668 58.3262 180.734C58.3136 180.799 58.2882 180.861 58.2513 180.917Z" stroke="#3E1F37" stroke-linecap="round" stroke-linejoin="round"/>
<path d="M62.1387 183.456C62.0838 183.538 62.0057 183.603 61.9141 183.641C61.8226 183.68 61.7218 183.69 61.6244 183.671C61.5269 183.652 61.4372 183.605 61.3665 183.536C61.2958 183.466 61.2473 183.377 61.2271 183.28C61.2069 183.183 61.2159 183.082 61.2529 182.99C61.2899 182.898 61.3534 182.818 61.4353 182.762C61.5171 182.706 61.6138 182.676 61.713 182.674C61.8122 182.673 61.9096 182.701 61.9929 182.755C62.1048 182.829 62.1828 182.944 62.2101 183.075C62.2374 183.207 62.2118 183.343 62.1387 183.456Z" stroke="#3E1F37" stroke-linecap="round" stroke-linejoin="round"/>
<path d="M66.0226 185.994C65.9682 186.077 65.8903 186.142 65.7987 186.182C65.7072 186.221 65.6061 186.232 65.5083 186.213C65.4105 186.195 65.3204 186.148 65.2493 186.078C65.1782 186.009 65.1294 185.919 65.109 185.822C65.0885 185.725 65.0975 185.623 65.1347 185.531C65.1718 185.439 65.2356 185.359 65.3178 185.303C65.4 185.247 65.497 185.217 65.5965 185.216C65.696 185.215 65.7935 185.243 65.8768 185.298C65.9325 185.334 65.9806 185.38 66.0181 185.435C66.0557 185.489 66.082 185.551 66.0956 185.615C66.1091 185.68 66.1097 185.747 66.0971 185.812C66.0846 185.877 66.0592 185.939 66.0226 185.994Z" stroke="#3E1F37" stroke-linecap="round" stroke-linejoin="round"/>
<path d="M52.1914 181.706C52.1366 181.791 52.0579 181.857 51.9654 181.896C51.873 181.936 51.7708 181.947 51.672 181.929C51.5731 181.91 51.4821 181.862 51.4103 181.792C51.3385 181.722 51.2892 181.631 51.2687 181.533C51.2482 181.435 51.2574 181.332 51.2952 181.239C51.3329 181.146 51.3975 181.066 51.4808 181.009C51.564 180.953 51.6621 180.922 51.7627 180.922C51.8633 180.921 51.9617 180.951 52.0457 181.006C52.1565 181.081 52.2338 181.196 52.261 181.327C52.2882 181.457 52.2633 181.594 52.1914 181.706Z" stroke="#3E1F37" stroke-linecap="round" stroke-linejoin="round"/>
<path d="M56.0742 184.245C56.0193 184.328 55.9412 184.392 55.8497 184.431C55.7582 184.469 55.6573 184.48 55.5599 184.461C55.4624 184.442 55.3727 184.395 55.302 184.325C55.2314 184.256 55.1829 184.167 55.1626 184.069C55.1424 183.972 55.1514 183.871 55.1884 183.779C55.2255 183.687 55.2889 183.608 55.3708 183.552C55.4527 183.496 55.5493 183.465 55.6485 183.464C55.7478 183.463 55.8452 183.491 55.9285 183.545C55.9843 183.581 56.0325 183.628 56.0701 183.683C56.1077 183.737 56.1341 183.799 56.1476 183.864C56.1612 183.93 56.1617 183.997 56.1491 184.062C56.1365 184.127 56.111 184.19 56.0742 184.245Z" stroke="#3E1F37" stroke-linecap="round" stroke-linejoin="round"/>
<path d="M59.9805 186.784C59.9075 186.895 59.7932 186.973 59.6628 187.001C59.5323 187.028 59.3964 187.002 59.2848 186.93C59.2014 186.875 59.1361 186.797 59.097 186.706C59.0579 186.614 59.0469 186.513 59.0653 186.415C59.0837 186.318 59.1307 186.227 59.2003 186.156C59.27 186.085 59.3591 186.036 59.4565 186.016C59.5539 185.996 59.6552 186.005 59.7475 186.042C59.8399 186.079 59.9191 186.143 59.9752 186.225C60.0313 186.307 60.0617 186.404 60.0627 186.504C60.0636 186.603 60.035 186.701 59.9805 186.784Z" stroke="#3E1F37" stroke-linecap="round" stroke-linejoin="round"/>
<path d="M63.8498 189.322C63.7954 189.406 63.7175 189.471 63.626 189.51C63.5345 189.549 63.4334 189.56 63.3356 189.542C63.2378 189.523 63.1476 189.476 63.0765 189.407C63.0055 189.337 62.9566 189.248 62.9362 189.151C62.9158 189.053 62.9248 188.952 62.9619 188.86C62.9991 188.767 63.0628 188.688 63.145 188.632C63.2272 188.576 63.3242 188.545 63.4237 188.544C63.5233 188.544 63.6208 188.572 63.7041 188.627C63.8156 188.7 63.8936 188.814 63.9209 188.944C63.9482 189.075 63.9227 189.211 63.8498 189.322Z" stroke="#3E1F37" stroke-linecap="round" stroke-linejoin="round"/>
<path d="M50.0143 185.035C49.9594 185.119 49.8808 185.185 49.7883 185.225C49.6958 185.265 49.5937 185.276 49.4949 185.257C49.396 185.239 49.3049 185.191 49.2331 185.121C49.1613 185.05 49.1121 184.96 49.0916 184.862C49.0711 184.763 49.0803 184.661 49.1181 184.568C49.1558 184.474 49.2204 184.395 49.3036 184.338C49.3869 184.282 49.485 184.251 49.5856 184.25C49.6861 184.25 49.7846 184.279 49.8685 184.335C49.9804 184.408 50.0584 184.524 50.0857 184.655C50.113 184.786 50.0874 184.923 50.0143 185.035Z" stroke="#3E1F37" stroke-linecap="round" stroke-linejoin="round"/>
<path d="M53.9026 187.574C53.8477 187.658 53.7691 187.724 53.6766 187.764C53.5841 187.803 53.482 187.814 53.3832 187.796C53.2843 187.777 53.1932 187.73 53.1214 187.659C53.0496 187.589 53.0004 187.499 52.9799 187.4C52.9594 187.302 52.9686 187.199 53.0064 187.106C53.0441 187.013 53.1087 186.933 53.1919 186.877C53.2752 186.82 53.3733 186.79 53.4739 186.789C53.5744 186.788 53.6729 186.818 53.7568 186.873C53.8677 186.948 53.945 187.063 53.9722 187.194C53.9994 187.325 53.9744 187.461 53.9026 187.574Z" stroke="#3E1F37" stroke-linecap="round" stroke-linejoin="round"/>
<path d="M57.7897 190.112C57.7353 190.196 57.6571 190.263 57.5649 190.303C57.4727 190.343 57.3707 190.354 57.2718 190.336C57.1729 190.318 57.0816 190.271 57.0094 190.201C56.9372 190.132 56.8874 190.042 56.8663 189.943C56.8452 189.845 56.8537 189.743 56.8908 189.649C56.9279 189.556 56.9919 189.476 57.0747 189.419C57.1575 189.362 57.2553 189.331 57.3558 189.329C57.4563 189.328 57.555 189.356 57.6393 189.411C57.7519 189.484 57.8309 189.599 57.8591 189.73C57.8873 189.861 57.8624 189.999 57.7897 190.112Z" stroke="#3E1F37" stroke-linecap="round" stroke-linejoin="round"/>
<path d="M61.6733 192.651C61.6376 192.706 61.5911 192.755 61.5366 192.792C61.4821 192.83 61.4207 192.856 61.356 192.87C61.2912 192.883 61.2244 192.884 61.1594 192.871C61.0944 192.859 61.0326 192.833 60.9775 192.797C60.9195 192.762 60.8691 192.716 60.8294 192.661C60.7897 192.606 60.7614 192.544 60.7463 192.478C60.7311 192.412 60.7295 192.344 60.7414 192.277C60.7533 192.21 60.7785 192.147 60.8155 192.09C60.8525 192.033 60.9006 191.985 60.9568 191.947C61.0131 191.91 61.0763 191.884 61.1428 191.871C61.2093 191.859 61.2776 191.859 61.3437 191.874C61.4098 191.888 61.4724 191.916 61.5275 191.955C61.5833 191.991 61.6313 192.037 61.6688 192.092C61.7064 192.146 61.7327 192.208 61.7463 192.272C61.7599 192.337 61.7604 192.404 61.7479 192.469C61.7353 192.534 61.71 192.596 61.6733 192.651Z" stroke="#3E1F37" stroke-linecap="round" stroke-linejoin="round"/>
</g>
<g opacity="0.3">
<path d="M36.1554 83.1281L43.9735 79.3672L51.3825 94.7494C53.5366 99.2258 53.825 104.374 52.1845 109.063C50.5439 113.752 47.1086 117.598 42.6336 119.755C38.1573 121.909 33.0087 122.197 28.3198 120.557C23.6308 118.916 19.7851 115.481 17.6281 111.006L15.1459 105.835" stroke="#3E1F37" stroke-linecap="round" stroke-linejoin="round"/>
<path d="M14.4126 104.321L10.2191 95.6192L34.3267 84.0073" stroke="#3E1F37" stroke-linecap="round" stroke-linejoin="round"/>
<path d="M57.631 103.296C56.2296 103.837 54.7179 104.029 53.226 103.856" stroke="#3E1F37" stroke-linecap="round" stroke-linejoin="round"/>
<path d="M46.7329 85.0929C47.3954 84.4861 48.1429 83.9792 48.9519 83.5885C53.8975 81.205 60.009 83.6167 62.5853 88.9808C64.7431 93.4657 63.7512 98.5994 60.465 101.547" stroke="#3E1F37" stroke-linecap="round" stroke-linejoin="round"/>
<path d="M48.7312 89.2397C49.2692 88.4855 49.9888 87.8792 50.8232 87.4767C53.7897 86.0664 57.4472 87.4767 58.9986 90.7112C60.55 93.9456 59.3935 97.6877 56.427 99.1122C55.3455 99.6359 54.1251 99.8006 52.9435 99.5823" stroke="#3E1F37" stroke-linecap="round" stroke-linejoin="round"/>
<path d="M19.8754 101.942C24.1064 102.468 23.2226 104.955 19.598 102.736C19.0762 106.967 16.5846 106.083 18.8035 102.459C14.5725 101.937 15.4563 99.4454 19.0809 101.664C19.6074 97.4474 22.0943 98.3406 19.8754 101.942Z" stroke="#3E1F37" stroke-linecap="round" stroke-linejoin="round"/>
<path d="M26.2264 98.8858C30.4574 99.4077 29.5689 101.899 25.9443 99.6803C25.4225 103.911 22.9309 103.028 25.1498 99.403C20.9187 98.8764 21.8073 96.3848 25.4319 98.6085C25.9537 94.3868 28.4453 95.2612 26.2264 98.8858Z" stroke="#3E1F37" stroke-linecap="round" stroke-linejoin="round"/>
<path d="M32.5734 95.8258C36.8044 96.3524 35.9206 98.844 32.296 96.6203C31.7695 100.851 29.2826 99.9676 31.5015 96.343C27.2704 95.8211 28.1543 93.3295 31.7789 95.5485C32.3007 91.3315 34.7923 92.2012 32.5734 95.8258Z" stroke="#3E1F37" stroke-linecap="round" stroke-linejoin="round"/>
<path d="M38.9243 92.7697C43.1553 93.2962 42.2668 95.7831 38.6422 93.5642C38.1204 97.7953 35.6287 96.9114 37.8477 93.2868C33.6166 92.765 34.5005 90.2734 38.1251 92.4923C38.6516 88.2754 41.1432 89.1451 38.9243 92.7697Z" stroke="#3E1F37" stroke-linecap="round" stroke-linejoin="round"/>
<path d="M45.2715 89.7144C49.5026 90.2363 48.6187 92.7279 44.9941 90.5089C44.4676 94.74 41.976 93.8562 44.1996 90.2316C39.9686 89.705 40.8524 87.2134 44.477 89.4371C44.9988 85.2154 47.4905 86.0898 45.2715 89.7144Z" stroke="#3E1F37" stroke-linecap="round" stroke-linejoin="round"/>
<path d="M11.559 59.8521C10.129 60.1215 8.73131 60.5406 7.38904 61.1026" stroke="#3E1F37" stroke-linecap="round" stroke-linejoin="round"/>
<path d="M18.536 89.4091C18.536 89.4091 16.1384 88.2056 21.1076 81.6944C26.0767 75.1833 26.937 67.2947 22.1371 62.3209C19.9793 60.0878 17.0881 59.5002 14.4225 59.5519" stroke="#3E1F37" stroke-linecap="round" stroke-linejoin="round"/>
<path d="M29.9971 71.8682C28.1166 75.9723 24.8822 79.5734 25.3946 82.018C26.081 85.2712 31.9105 84.0724 31.9105 84.0724" stroke="#3E1F37" stroke-linecap="round" stroke-linejoin="round"/>
<path d="M25.7379 58.875C25.7379 58.875 31.7366 61.7897 31.2242 67.6192C31.1697 68.1871 31.0707 68.7498 30.928 69.3022" stroke="#3E1F37" stroke-linecap="round" stroke-linejoin="round"/>
</g>
<g opacity="0.3">
<path d="M62.8769 4.6792C62.8769 4.6792 59.5109 -0.0830947 52.13 1.22853C44.7492 2.54016 42.6336 11.5147 42.6336 11.5147C42.6336 11.5147 37.8102 9.80348 33.2313 14.373C27.5429 20.0426 30.2742 24.6592 30.2742 24.6592C30.2742 24.6592 22.6489 26.7606 21.6006 34.1227C20.5522 41.4847 22.9122 47.5304 32.3757 49.3733C41.8391 51.2161 45.2616 49.9186 45.2616 49.9186" stroke="#3E1F37" stroke-linecap="round" stroke-linejoin="round"/>
<path d="M65.5048 7.30713C65.5048 7.30713 71.8137 13.6161 72.0864 21.2414C72.3591 28.8667 71.2966 31.2314 71.2966 31.2314" stroke="#3E1F37" stroke-linecap="round" stroke-linejoin="round"/>
<path d="M47.8896 47.7935C49.1666 43.5343 51.6665 39.7439 55.079 36.8931C58.4914 34.0423 62.6661 32.2566 67.0845 31.7578" stroke="#3E1F37" stroke-linecap="round" stroke-linejoin="round"/>
<path d="M47.8896 50.4261L59.4592 65.1455C59.4592 65.1455 61.1658 56.6833 79.6743 47.4643L71.5507 34.6489" stroke="#3E1F37" stroke-linecap="round" stroke-linejoin="round"/>
<path d="M60.3055 65.4746C60.3055 65.4746 62.1437 65.0045 66.953 62.6539C73.0927 59.6639 81.5972 50.1346 80.6851 48.1978" stroke="#3E1F37" stroke-linecap="round" stroke-linejoin="round"/>
<path d="M29.6585 32.3641C29.6585 32.3641 28.5067 25.3124 34.2609 23.8174" stroke="#3E1F37" stroke-linecap="round" stroke-linejoin="round"/>
<path d="M40.5042 15.4405C40.5042 15.4405 41.8205 10.1799 48.5573 10.509" stroke="#3E1F37" stroke-linecap="round" stroke-linejoin="round"/>
</g>
<path d="M102.178 35.0817L105.224 23.7988C105.224 23.7988 111.933 26.5396 114.679 27.4563C116.684 28.0849 118.724 28.5935 120.79 28.9795L117.744 40.2623L102.178 35.0817Z" fill="white" stroke="#3E1F37" stroke-linecap="round" stroke-linejoin="round"/>
<path d="M126.268 42.7068L126.874 32.6416L138.157 34.7806V47.8922L126.268 42.7068Z" fill="white" stroke="#3E1F37" stroke-linecap="round" stroke-linejoin="round"/>
<path d="M132.971 49.7208L136.939 35.998L151.268 41.7899L145.476 51.8551L132.971 49.7208Z" fill="white" stroke="#3E1F37" stroke-linecap="round" stroke-linejoin="round"/>
<path d="M44.2322 157.237L135.905 201.823C136.096 201.918 136.305 201.968 136.518 201.971C136.731 201.973 136.941 201.928 137.134 201.837C137.327 201.747 137.496 201.614 137.63 201.449C137.764 201.283 137.859 201.09 137.908 200.882L144.132 174.029L44.2933 157.025C44.2677 157.024 44.2423 157.031 44.2214 157.046C44.2004 157.06 44.1851 157.082 44.178 157.106C44.1709 157.131 44.1724 157.157 44.1822 157.181C44.1921 157.205 44.2097 157.224 44.2322 157.237Z" fill="#3E1F37"/>
<path d="M46.2061 157.928L136.765 198.476L140.023 184.321L46.2719 157.721C46.2445 157.713 46.2147 157.715 46.1892 157.728C46.1636 157.742 46.1443 157.765 46.1356 157.792C46.1269 157.819 46.1294 157.849 46.1426 157.875C46.1559 157.9 46.1787 157.92 46.2061 157.928Z" fill="white" stroke="#3E1F37" stroke-linecap="round" stroke-linejoin="round"/>
<path d="M47.0011 158.164L137.137 197.099L140.023 184.321L47.0716 157.952C47.0451 157.948 47.0178 157.953 46.9947 157.967C46.9716 157.981 46.9542 158.002 46.9457 158.028C46.9372 158.053 46.9381 158.081 46.9483 158.106C46.9584 158.131 46.9772 158.152 47.0011 158.164Z" fill="white" stroke="#3E1F37" stroke-linecap="round" stroke-linejoin="round"/>
<path d="M43.231 156.828L137.513 195.716L140.301 183.145L43.231 156.828Z" fill="white" stroke="#3E1F37" stroke-linecap="round" stroke-linejoin="round"/>
<path d="M47.1704 158.013L145.34 186.92L146.337 181.603L47.2268 157.797C47.1997 157.793 47.1725 157.8 47.15 157.816C47.1275 157.831 47.1114 157.854 47.1045 157.88C47.0976 157.907 47.1005 157.935 47.1126 157.959C47.1247 157.983 47.1452 158.002 47.1704 158.013Z" fill="white" stroke="#3E1F37" stroke-linecap="round" stroke-linejoin="round"/>
<path d="M47.2082 157.971L146.304 185.938L147.301 180.611L47.2599 157.75C47.2306 157.743 47.1998 157.748 47.1742 157.764C47.1487 157.78 47.1304 157.805 47.1236 157.834C47.1167 157.863 47.1218 157.894 47.1377 157.92C47.1535 157.945 47.1789 157.964 47.2082 157.971Z" fill="white" stroke="#3E1F37" stroke-linecap="round" stroke-linejoin="round"/>
<path d="M47.2411 157.937L147.226 185.068L148.218 179.751L47.2881 157.721C47.262 157.721 47.2366 157.729 47.2161 157.746C47.1957 157.762 47.1815 157.785 47.1759 157.81C47.1704 157.836 47.1738 157.862 47.1857 157.885C47.1976 157.909 47.2172 157.927 47.2411 157.937Z" fill="white" stroke="#3E1F37" stroke-linecap="round" stroke-linejoin="round"/>
<path d="M150.243 181.392C150.088 182.001 149.697 182.524 149.157 182.846C148.617 183.167 147.971 183.262 147.361 183.108L43.3385 156.856C43.3242 156.852 43.311 156.845 43.2995 156.836C43.2881 156.826 43.2786 156.815 43.2716 156.801C43.2646 156.788 43.2603 156.774 43.2588 156.759C43.2574 156.744 43.2589 156.73 43.2632 156.715L82.424 23.5264L180.072 55.0901C180.641 55.2757 181.119 55.6694 181.41 56.1925C181.702 56.7155 181.784 57.3292 181.642 57.9108L150.243 181.392Z" fill="#FB993B" stroke="#3E1F37" stroke-linecap="round" stroke-linejoin="round"/>
<path d="M50.3766 158.657L43.3248 156.856C43.3106 156.852 43.2974 156.845 43.2859 156.836C43.2744 156.826 43.2649 156.815 43.2579 156.801C43.2509 156.788 43.2466 156.774 43.2452 156.759C43.2437 156.744 43.2452 156.73 43.2496 156.715L82.4104 23.5264L89.6643 25.4068L50.5082 158.582C50.5005 158.609 50.4824 158.632 50.4578 158.646C50.4331 158.66 50.404 158.664 50.3766 158.657Z" fill="#3E1F37" stroke="#3E1F37" stroke-linecap="round" stroke-linejoin="round"/>
<path d="M98.3143 93.2971C98.3143 93.2971 94.8731 85.6765 88.8697 82.7946C82.8663 79.9128 83.0261 85.6153 86.9892 87.9659C90.9523 90.3165 96.6783 91.2615 98.3143 93.2971Z" fill="#3E1F37"/>
<path d="M141.913 128.899C141.913 128.899 143.488 129.929 145.101 134.879C146.713 139.829 145.721 145.842 148.608 147.102C151.494 148.362 154.089 147.055 152.467 140.802C150.845 134.55 144.522 128.593 141.913 128.899Z" fill="#3E1F37"/>
<path d="M91.8125 124.484C91.8125 124.484 89.932 124.629 86.1476 128.198C82.3632 131.766 80.3322 137.515 77.1872 137.252C74.0421 136.989 72.4014 134.572 76.8299 129.867C81.2584 125.161 89.6641 122.984 91.8125 124.484Z" fill="#3E1F37"/>
<path d="M144.955 91.571C144.955 91.571 145.321 89.9914 148.838 87.2271C152.354 84.4628 157.511 83.4661 157.69 80.7818C157.869 78.0974 156.031 76.3674 151.461 79.5266C146.891 82.6857 143.953 89.5495 144.955 91.571Z" fill="#3E1F37"/>
<path d="M109.371 159.085C106.727 160.669 103.574 161.174 100.567 160.496C97.5597 159.818 94.9289 158.009 93.2202 155.443C91.5115 152.877 90.856 149.752 91.3897 146.716C91.9234 143.68 93.6053 140.965 96.0866 139.136C98.5678 137.307 101.658 136.503 104.716 136.891C107.774 137.279 110.566 138.829 112.512 141.22C114.457 143.611 115.408 146.66 115.166 149.733C114.925 152.806 113.51 155.668 111.214 157.726" stroke="#3E1F37" stroke-linecap="round" stroke-linejoin="round"/>
<path d="M108.309 140.252C108.107 142.602 103.669 147.186 103.669 147.186C103.669 147.186 101.892 139.829 102.968 138.409C103.688 137.469 106.447 137.652 107.693 138.799" stroke="#3E1F37" stroke-linecap="round" stroke-linejoin="round"/>
<path d="M102.244 147.379C102.244 147.379 95.3852 144.182 94.948 142.452C94.5578 140.915 98.0084 137.807 99.7197 139.429C101.431 141.051 102.244 147.379 102.244 147.379Z" stroke="#3E1F37" stroke-linecap="round" stroke-linejoin="round"/>
<path d="M98.3567 146.937C100.073 147.741 101.511 148.61 101.511 148.61C101.511 148.61 94.7367 151.981 93.1101 151.248C91.6622 150.594 91.3848 145.959 93.7213 145.606C94.4829 145.498 95.6018 145.785 96.7159 146.213" stroke="#3E1F37" stroke-linecap="round" stroke-linejoin="round"/>
<path d="M102.014 149.955C102.014 149.955 100.425 157.355 98.8359 158.168C97.4256 158.892 93.627 156.217 94.8258 154.191C96.0246 152.165 102.014 149.955 102.014 149.955Z" stroke="#3E1F37" stroke-linecap="round" stroke-linejoin="round"/>
<path d="M103.383 150.396C103.383 150.396 108.173 156.254 107.821 158.003C107.506 159.564 103.044 160.861 102.207 158.656C101.371 156.452 103.383 150.396 103.383 150.396Z" stroke="#3E1F37" stroke-linecap="round" stroke-linejoin="round"/>
<path d="M104.577 149.607C104.577 149.607 112.146 149.508 113.293 150.881C114.313 152.099 112.55 156.391 110.307 155.676C108.065 154.962 104.577 149.607 104.577 149.607Z" stroke="#3E1F37" stroke-linecap="round" stroke-linejoin="round"/>
<path d="M104.708 148.174C104.708 148.174 109.349 142.198 111.135 142.156C112.724 142.114 114.981 146.171 113.015 147.478C111.05 148.785 104.708 148.174 104.708 148.174Z" stroke="#3E1F37" stroke-linecap="round" stroke-linejoin="round"/>
<path d="M98.0603 47.479C97.7006 47.9799 97.3859 48.5116 97.12 49.068C96.0727 51.299 95.8819 53.8372 96.5841 56.1997C96.979 57.5536 97.8487 58.9405 97.6795 60.3978C97.482 62.0903 96.3537 63.3925 96.3208 65.2118C96.2644 68.5356 99.8608 72.4705 103.735 74.0971C107.091 75.5074 111.045 75.5074 113.842 74.9198" stroke="#3E1F37" stroke-linecap="round" stroke-linejoin="round"/>
<path d="M116.865 73.8948C120.047 72.4844 122.196 70.2467 122.008 66.2601C121.923 64.4407 121.143 61.7093 122.36 60.1485C123.771 58.2681 126.968 56.3876 126.403 51.1787C125.839 45.9698 117.988 41.8798 113.513 41.372C109.451 40.9019 108.252 42.2182 106.517 42.7824C103.946 43.6286 101.628 44.2492 99.7572 45.7065" stroke="#3E1F37" stroke-linecap="round" stroke-linejoin="round"/>
<path d="M109.581 64.3339C113.388 63.6619 115.93 60.0308 115.258 56.2237C114.586 52.4165 110.954 49.8749 107.147 50.5469C103.34 51.2189 100.799 54.85 101.471 58.6572C102.143 62.4643 105.774 65.0059 109.581 64.3339Z" stroke="#3E1F37" stroke-linecap="round" stroke-linejoin="round"/>
<path d="M112.926 53.3696C113.657 54.1919 114.152 55.1962 114.36 56.2766C114.567 57.3569 114.479 58.4733 114.105 59.5079C113.731 60.5425 113.085 61.4569 112.234 62.1547C111.384 62.8525 110.361 63.3077 109.273 63.4725" stroke="#3E1F37" stroke-linecap="round" stroke-linejoin="round"/>
<path d="M106.052 63.0818C104.919 62.6182 103.953 61.8235 103.279 60.8018" stroke="#3E1F37" stroke-linecap="round" stroke-linejoin="round"/>
<path d="M168.249 80.3305C168.249 80.3305 164.136 81.1062 162.199 80.2646" stroke="#3E1F37" stroke-linecap="round" stroke-linejoin="round"/>
<path d="M169.048 87.4341C167.621 88.1154 166.007 88.2975 164.464 87.9512" stroke="#3E1F37" stroke-linecap="round" stroke-linejoin="round"/>
<path d="M162.655 97.7388C162.655 97.7388 163.2 98.7965 165.715 97.8375" stroke="#3E1F37" stroke-linecap="round" stroke-linejoin="round"/>
<path d="M165.522 92.258C164.445 92.2982 163.367 92.1762 162.325 91.896" stroke="#3E1F37" stroke-linecap="round" stroke-linejoin="round"/>
<path d="M167.281 98.1529C168.287 96.5216 169.368 95.1442 169.927 93.2731C170.534 91.2563 170.741 89.122 171.648 87.1992C172.908 84.5195 173.058 83.2126 172.814 80.3214C172.696 78.911 173.284 77.4114 172.588 76.0903C171.775 74.506 169.946 71.6007 166.425 71.5725C162.904 71.5443 160.074 74.1675 159.895 76.095C159.716 78.0225 160.864 79.9406 160.746 81.0078C160.628 82.0749 159.768 83.0105 159.806 84.3409C159.843 87.848 160.445 90.7768 159.773 94.3403C159.492 96.0149 159.11 97.6712 158.63 99.3C158.001 101.284 157.737 103.752 159.637 105.148C161.155 106.262 163.68 103.968 164.549 102.976C165.739 101.618 166.204 99.9817 167.097 98.4914L167.281 98.1529Z" stroke="#3E1F37" stroke-linecap="round" stroke-linejoin="round"/>
<path d="M166.425 71.5774C166.425 71.5774 166.599 69.3161 167.389 68.5734C168.178 67.8306 171.037 67.8682 173.03 66.1852C175.023 64.5021 174.605 64.0414 173.143 64.4598C171.681 64.8782 174.798 63.7735 175.493 61.2395C176.189 58.7056 173.754 60.13 171.911 62.0763C170.068 64.0226 169.006 63.5713 169.198 62.9743C169.391 62.3772 171.079 59.4954 170.534 57.441C169.988 55.3866 167.553 56.858 167.008 59.6975C166.462 62.537 166.777 66.7211 165.898 65.3389C165.019 63.9568 166.528 62.1515 165.532 55.9084C164.535 49.6652 160.957 50.1682 160.906 52.3637C160.854 54.5591 163.078 56.5948 161.615 56.3456C160.153 56.0964 156.284 55.0763 156.585 58.2637C156.886 61.4511 160.041 58.4893 161.263 60.539C162.485 62.5888 164.742 62.758 164.554 65.353C164.366 67.9481 162.673 65.6398 161.033 65.6586C159.392 65.6774 158.325 67.2147 160.534 68.9212C162.744 70.6278 163.914 68.0186 164.859 69.2033C165.408 69.8251 165.738 70.6093 165.8 71.4364L166.425 71.5774Z" stroke="#3E1F37" stroke-linecap="round" stroke-linejoin="round"/>
<path d="M122.869 157.533L124.03 170.673C124.057 170.996 124.15 171.31 124.305 171.596C124.459 171.881 124.67 172.131 124.926 172.331C125.182 172.531 125.476 172.675 125.79 172.756C126.104 172.836 126.432 172.85 126.752 172.798L147.555 169.545C147.869 169.497 148.171 169.386 148.441 169.218C148.711 169.05 148.945 168.829 149.127 168.569C149.31 168.308 149.437 168.013 149.502 167.702C149.567 167.39 149.569 167.069 149.506 166.757L145.646 146.866C145.531 146.276 145.195 145.753 144.706 145.403C144.218 145.053 143.614 144.904 143.018 144.986L141.692 145.16M140.282 145.343L136.018 145.898C135.815 145.931 135.608 145.889 135.434 145.778C135.261 145.668 135.134 145.498 135.078 145.301L134.819 144.408C134.78 144.266 134.777 144.118 134.812 143.975C134.846 143.833 134.917 143.702 135.017 143.594L135.177 143.425C135.459 143.127 135.669 142.768 135.789 142.376C135.909 141.983 135.936 141.568 135.868 141.164C135.752 140.484 135.376 139.877 134.819 139.47C134.263 139.064 133.57 138.89 132.887 138.987L131.171 139.227C130.801 139.279 130.447 139.409 130.131 139.608C129.814 139.807 129.544 140.07 129.337 140.381C129.129 140.691 128.99 141.042 128.928 141.411C128.866 141.779 128.882 142.156 128.976 142.518L129.037 142.743C129.139 143.14 129.332 143.507 129.601 143.816C129.869 144.125 130.205 144.368 130.584 144.525L131.524 144.911C131.655 144.966 131.771 145.054 131.859 145.165C131.948 145.277 132.007 145.409 132.031 145.55C132.05 145.661 132.046 145.775 132.02 145.885C131.994 145.995 131.945 146.098 131.878 146.189C131.811 146.28 131.726 146.356 131.629 146.414C131.532 146.471 131.424 146.508 131.312 146.523L124.237 147.463C123.63 147.539 123.077 147.848 122.695 148.324C122.312 148.801 122.13 149.408 122.187 150.016L122.756 156.424M132.314 143.152C132.115 143.102 131.935 142.993 131.798 142.84C131.661 142.687 131.572 142.497 131.543 142.294C131.513 142.091 131.545 141.883 131.633 141.698C131.722 141.513 131.863 141.358 132.04 141.253C132.216 141.148 132.42 141.098 132.625 141.108C132.83 141.119 133.027 141.19 133.192 141.313C133.357 141.436 133.481 141.604 133.55 141.798C133.619 141.992 133.628 142.201 133.578 142.4C133.501 142.657 133.329 142.875 133.096 143.008C132.863 143.141 132.588 143.179 132.328 143.115L132.314 143.152Z" stroke="#3E1F37" stroke-linecap="round" stroke-linejoin="round"/>
<path d="M142.689 166.668L145.509 166.198C145.686 166.167 145.855 166.101 146.005 166.003C146.156 165.906 146.285 165.779 146.385 165.63C146.485 165.481 146.554 165.313 146.588 165.137C146.622 164.961 146.619 164.779 146.581 164.604L143.004 148.268C142.931 147.937 142.735 147.647 142.455 147.456C142.175 147.266 141.833 147.189 141.499 147.243L125.896 149.725C125.557 149.777 125.252 149.96 125.046 150.234C124.839 150.508 124.748 150.852 124.791 151.192L126.813 167.966C126.834 168.144 126.891 168.316 126.981 168.471C127.07 168.627 127.191 168.762 127.335 168.87C127.478 168.977 127.643 169.054 127.817 169.096C127.992 169.137 128.173 169.143 128.35 169.113L141.278 166.908" stroke="#3E1F37" stroke-linecap="round" stroke-linejoin="round"/>
<path d="M70.126 149.405C67.1502 149.946 64.2496 150.759 63.3704 152.889C61.6075 157.143 66.9715 158.53 71.7526 158.229C76.5337 157.928 80.5156 152.235 81.7991 148.526C82.7006 146.254 83.8516 144.089 85.2309 142.071" stroke="#3E1F37" stroke-linecap="round" stroke-linejoin="round"/>
<path d="M86.5848 140.111C87.9421 138.155 89.5459 136.382 91.3565 134.836C94.9294 132.053 101.003 133.271 103.627 130.915C106.25 128.56 101.718 125.89 94.4357 128.729C91.318 130.058 88.6897 132.321 86.9139 135.207C83.8064 140.125 79.7493 145.475 77.3658 147.553C76.4255 148.371 74.3664 148.709 72.0817 149.081" stroke="#3E1F37" stroke-linecap="round" stroke-linejoin="round"/>
<path d="M75.2594 152.752C74.4998 153.11 73.714 153.411 72.9088 153.65C67.2674 155.399 64.2915 155.145 64.6159 153.88C64.9403 152.615 67.5494 151.609 67.5494 151.609" stroke="#3E1F37" stroke-linecap="round" stroke-linejoin="round"/>
<path d="M78.5603 149.377C78.5603 149.377 78.5603 150.374 77.1499 151.549" stroke="#3E1F37" stroke-linecap="round" stroke-linejoin="round"/>
<path d="M147.136 56.1386C146.336 53.7427 144.951 51.5841 143.107 49.8578C142.143 48.9274 140.999 48.2042 139.746 47.7329C136.013 46.4777 131.754 48.9975 130.752 52.3447C129.751 55.692 130.729 63.0023 130.729 63.0023C130.729 63.0023 127.438 61.7142 126.629 64.3562C125.821 66.9983 129.079 68.2864 129.991 68.8224C130.903 69.3583 132.13 71.0225 132.13 71.0225C132.13 71.0225 133.587 78.5162 134.443 79.4047C135.298 80.2932 149.891 73.3214 151.122 71.9815C152.067 70.9567 148.748 60.8304 147.136 56.1386Z" stroke="#3E1F37" stroke-linecap="round" stroke-linejoin="round"/>
<path d="M142.392 74.3647L150.925 70.1807" stroke="#3E1F37" stroke-linecap="round" stroke-linejoin="round"/>
<path d="M134.452 78.2571L139.957 75.5586" stroke="#3E1F37" stroke-linecap="round" stroke-linejoin="round"/>
<path d="M137.034 48.4614C137.034 48.4614 136.244 62.6637 133.63 71.4408" stroke="#3E1F37" stroke-linecap="round" stroke-linejoin="round"/>
<path d="M138.604 49.1382C138.604 49.1382 138.293 62.1792 134.96 72.3338" stroke="#3E1F37" stroke-linecap="round" stroke-linejoin="round"/>
<path d="M139.948 65.6304C139.374 68.1876 138.533 70.6773 137.437 73.0582" stroke="#3E1F37" stroke-linecap="round" stroke-linejoin="round"/>
<path d="M142.364 51.6582C141.885 55.8863 141.188 60.0869 140.277 64.2433" stroke="#3E1F37" stroke-linecap="round" stroke-linejoin="round"/>
<path d="M144.527 53.957C144.527 53.957 143.197 64.9014 139.069 73.843" stroke="#3E1F37" stroke-linecap="round" stroke-linejoin="round"/>
<path d="M146.736 59.6592C146.736 59.6592 145.237 66.2408 142.792 71.492" stroke="#3E1F37" stroke-linecap="round" stroke-linejoin="round"/>
<path d="M133.094 65.71C132.925 66.4198 132.746 67.1203 132.548 67.7738" stroke="#3E1F37" stroke-linecap="round" stroke-linejoin="round"/>
<path d="M135.261 49.6558C134.964 54.4937 134.361 59.3079 133.455 64.0696" stroke="#3E1F37" stroke-linecap="round" stroke-linejoin="round"/>
<path d="M139.646 53.3364C141.98 54.4057 144.118 55.8563 145.974 57.6286" stroke="#3E1F37" stroke-linecap="round" stroke-linejoin="round"/>
<path d="M134.086 51.7432C135.826 51.9322 137.527 52.3922 139.125 53.1065" stroke="#3E1F37" stroke-linecap="round" stroke-linejoin="round"/>
<path d="M133.752 53.7646C133.752 53.7646 143.032 55.8661 147.888 62.3396" stroke="#3E1F37" stroke-linecap="round" stroke-linejoin="round"/>
<path d="M132.741 56.627C132.741 56.627 138.716 56.594 148.494 65.7049" stroke="#3E1F37" stroke-linecap="round" stroke-linejoin="round"/>
<path d="M147.24 67.7271C147.389 67.8917 147.528 68.0643 147.658 68.2442" stroke="#3E1F37" stroke-linecap="round" stroke-linejoin="round"/>
<path d="M139.591 61.7759C139.591 61.7759 143.977 64.5966 146.44 66.9143" stroke="#3E1F37" stroke-linecap="round" stroke-linejoin="round"/>
<path d="M134.96 64.4458C134.96 64.4458 142.252 67.2242 144.602 70.9428" stroke="#3E1F37" stroke-linecap="round" stroke-linejoin="round"/>
<path d="M121.096 128.79C121.096 128.79 118.158 127.055 116.254 130.092C114.35 133.129 115.915 136.914 117.664 138.348C119.413 139.781 120.64 138.818 120.64 138.818C120.64 138.818 122.22 140.914 123.715 140.59C125.21 140.266 128.67 137.205 128.919 134.008C129.168 130.812 124.077 129.246 124.077 129.246" stroke="#3E1F37" stroke-linecap="round" stroke-linejoin="round"/>
<path d="M121.881 130.121C121.881 130.121 121.914 129.425 122.121 128.071C122.328 126.717 122.53 125.918 123.324 126.12C124.119 126.322 123.743 128.344 122.854 130.229" stroke="#3E1F37" stroke-linecap="round" stroke-linejoin="round"/>
<path d="M119.216 129.326C119.522 129.597 119.803 129.896 120.053 130.219C120.461 130.161 120.877 130.218 121.254 130.384C121.632 130.55 121.955 130.819 122.187 131.16C122.575 130.88 123.038 130.722 123.516 130.707C123.994 130.692 124.466 130.82 124.871 131.075" stroke="#3E1F37" stroke-linecap="round" stroke-linejoin="round"/>
<path d="M121.839 132.273C121.839 132.273 121.26 136.434 120.898 137.844" stroke="#3E1F37" stroke-linecap="round" stroke-linejoin="round"/>
<path d="M118.985 130.384C118.985 130.384 116.964 131.466 117.011 135.64" stroke="#3E1F37" stroke-linecap="round" stroke-linejoin="round"/>
<path d="M125.595 131.785C125.595 131.785 127.367 132.044 126.042 135.917C124.716 139.791 123.87 139.862 123.87 139.862" stroke="#3E1F37" stroke-linecap="round" stroke-linejoin="round"/>
<path d="M93.0255 73.2644C93.0255 73.2644 90.6467 71.8541 89.1 74.3128C87.5533 76.7715 88.8273 79.8414 90.2424 81.0073C91.6574 82.1731 92.6588 81.3927 92.6588 81.3927C92.6588 81.3927 93.9375 83.0946 95.1457 82.8313C96.3539 82.568 99.1605 80.0905 99.3768 77.5143C99.593 74.938 95.456 73.6546 95.456 73.6546" stroke="#3E1F37" stroke-linecap="round" stroke-linejoin="round"/>
<path d="M93.665 74.3645C93.665 74.3645 93.6933 73.8004 93.8625 72.7003C94.0317 71.6002 94.1916 70.9562 94.8356 71.1207C95.4797 71.2853 95.1741 72.9213 94.4407 74.4491" stroke="#3E1F37" stroke-linecap="round" stroke-linejoin="round"/>
<path d="M91.4788 73.6973C91.7283 73.9149 91.9565 74.1557 92.1604 74.4165C92.4899 74.37 92.8259 74.4161 93.1307 74.5498C93.4354 74.6835 93.6969 74.8995 93.8858 75.1734C94.2007 74.9472 94.5758 74.8197 94.9634 74.8072C95.3509 74.7946 95.7335 74.8976 96.0624 75.1029" stroke="#3E1F37" stroke-linecap="round" stroke-linejoin="round"/>
<path d="M93.6321 76.0854C93.6321 76.0854 93.162 79.4562 92.8705 80.5986" stroke="#3E1F37" stroke-linecap="round" stroke-linejoin="round"/>
<path d="M91.319 74.5532C91.319 74.5532 89.683 75.4276 89.7206 78.8125" stroke="#3E1F37" stroke-linecap="round" stroke-linejoin="round"/>
<path d="M96.6783 75.686C96.6783 75.686 98.1122 75.8976 97.0356 79.038C95.959 82.1784 95.2773 82.2348 95.2773 82.2348" stroke="#3E1F37" stroke-linecap="round" stroke-linejoin="round"/>
<path d="M88.23 67.1116C86.3778 67.6523 84.6242 67.2291 84.3187 66.1714C84.0131 65.1136 85.2589 63.8208 87.1159 63.2755C88.9728 62.7301 90.7217 63.1579 91.0272 64.2157C91.3328 65.2735 90.0682 66.571 88.23 67.1116Z" stroke="#3E1F37" stroke-linecap="round" stroke-linejoin="round"/>
<path d="M90.7126 55.3253C90.4635 56.3031 89.7724 56.966 89.133 56.8061C88.4937 56.6463 88.1928 55.7249 88.4561 54.747C88.7193 53.7692 89.3963 53.1016 90.0404 53.2614C90.6844 53.4213 90.9665 54.3427 90.7126 55.3253Z" stroke="#3E1F37" stroke-linecap="round" stroke-linejoin="round"/>
<path d="M151.142 95.0083C150.892 95.9909 150.201 96.6537 149.562 96.4939C148.923 96.3341 148.622 95.4126 148.885 94.4301C149.148 93.4475 149.825 92.7894 150.469 92.9492C151.113 93.109 151.395 94.0305 151.142 95.0083Z" stroke="#3E1F37" stroke-linecap="round" stroke-linejoin="round"/>
<path d="M87.0315 157.599C86.7824 158.581 86.0913 159.244 85.4472 159.084C84.8032 158.925 84.507 158.003 84.775 157.025C85.0429 156.047 85.7152 155.38 86.3546 155.54C86.9939 155.7 87.2807 156.635 87.0315 157.599Z" stroke="#3E1F37" stroke-linecap="round" stroke-linejoin="round"/>
<path d="M139.628 133.28C139.379 134.262 138.688 134.925 138.049 134.765C137.409 134.606 137.108 133.684 137.372 132.702C137.635 131.719 138.312 131.061 138.956 131.221C139.6 131.381 139.901 132.302 139.628 133.28Z" stroke="#3E1F37" stroke-linecap="round" stroke-linejoin="round"/>
<path d="M94.1917 43.0738C94.0695 43.5439 94.7229 44.155 95.6585 44.3948C96.594 44.6345 97.4543 44.4324 97.5765 43.9247C97.6988 43.4169 97.05 42.8434 96.1145 42.6036C95.1789 42.3639 94.2998 42.5848 94.1917 43.0738Z" stroke="#3E1F37" stroke-linecap="round" stroke-linejoin="round"/>
<path d="M157.295 108.867C157.168 109.337 157.826 109.948 158.762 110.183C159.697 110.418 160.553 110.221 160.68 109.713C160.807 109.205 160.148 108.632 159.213 108.392C158.277 108.152 157.426 108.378 157.295 108.867Z" stroke="#3E1F37" stroke-linecap="round" stroke-linejoin="round"/>
<path d="M75.5887 114.743C75.4664 115.213 76.1199 115.819 77.0554 116.059C77.991 116.299 78.8513 116.097 78.9735 115.589C79.0957 115.081 78.4423 114.508 77.5115 114.268C76.5806 114.028 75.7156 114.249 75.5887 114.743Z" stroke="#3E1F37" stroke-linecap="round" stroke-linejoin="round"/>
</svg>
